<svg width="32" height="32" viewBox="0 0 32 32" fill="none" xmlns="http://www.w3.org/2000/svg">
<g clip-path="url(#clip0_4044_55205)">
<rect x="2" y="2" width="28" height="28" rx="12" fill="#191659"/>
<path fill-rule="evenodd" clip-rule="evenodd" d="M17.1356 23.7283C17.5103 22.0935 17.7708 19.8046 17.8337 17.2168L18.4078 17.2307C18.3443 19.8435 18.0812 22.173 17.6954 23.8566C17.503 24.696 17.2767 25.3902 17.0209 25.8813C16.8933 26.1264 16.7511 26.3353 16.5904 26.4862C16.4287 26.6382 16.23 26.7477 15.9994 26.7477C15.7348 26.7477 15.5133 26.6043 15.3384 26.4156C15.163 26.2262 15.007 25.9632 14.8669 25.6514C14.5859 25.0261 14.341 24.1414 14.1421 23.0763L14.7065 22.9709C14.9019 24.017 15.1367 24.8508 15.3907 25.4161C15.5182 25.6997 15.6436 25.9001 15.7596 26.0253C15.8762 26.1512 15.9562 26.1735 15.9994 26.1735C16.0374 26.1735 16.1024 26.1568 16.1972 26.0678C16.293 25.9777 16.3999 25.8306 16.5116 25.6161C16.7346 25.1879 16.9478 24.548 17.1356 23.7283Z" fill="url(#paint0_linear_4044_55205)"/>
<path fill-rule="evenodd" clip-rule="evenodd" d="M15.0429 7.56794C14.6993 8.76961 14.4264 10.4808 14.2767 12.4902L13.7041 12.4475C13.8554 10.417 14.1325 8.66333 14.4909 7.41008C14.6694 6.78559 14.8727 6.26903 15.1004 5.90228C15.317 5.55345 15.612 5.25195 15.9993 5.25195C16.2299 5.25195 16.4286 5.36142 16.5904 5.51345C16.751 5.66441 16.8932 5.87323 17.0208 6.11838C17.2766 6.60949 17.5029 7.30368 17.6953 8.14311C18.0811 9.82663 18.3442 12.1562 18.4077 14.7689L17.8337 14.7829C17.7707 12.195 17.5102 9.90616 17.1356 8.2714C16.9477 7.45171 16.7345 6.81179 16.5115 6.38359C16.3998 6.16907 16.2929 6.02194 16.1971 5.93185C16.1024 5.84283 16.0373 5.82617 15.9993 5.82617C15.9323 5.82617 15.7865 5.88591 15.5882 6.2052C15.4011 6.50654 15.2154 6.96496 15.0429 7.56794Z" fill="url(#paint1_linear_4044_55205)"/>
<path fill-rule="evenodd" clip-rule="evenodd" d="M14.2773 12.4909C14.1957 13.5865 14.1509 14.768 14.1509 16.0001C14.1509 18.69 14.3643 21.1355 14.707 22.9708L14.1425 23.0762C13.7919 21.1985 13.5767 18.7166 13.5767 16.0001C13.5767 14.7543 13.6219 13.5585 13.7046 12.4482L14.2773 12.4909Z" fill="url(#paint2_linear_4044_55205)"/>
<path fill-rule="evenodd" clip-rule="evenodd" d="M14.0094 16.9752C12.1467 15.838 10.5375 14.685 9.34227 13.666L8.96973 14.103C10.1929 15.1458 11.8279 16.3162 13.7102 17.4653L14.0094 16.9752Z" fill="url(#paint3_linear_4044_55205)"/>
<path fill-rule="evenodd" clip-rule="evenodd" d="M22.1127 20.8487C20.5098 20.3558 18.3975 19.4371 16.125 18.1978L15.8501 18.7019C18.1444 19.9532 20.2932 20.89 21.9439 21.3975C22.767 21.6506 23.4813 21.8017 24.0345 21.8257C24.3106 21.8378 24.5625 21.819 24.7735 21.7554C24.986 21.6913 25.1802 21.5739 25.2955 21.3743C25.4899 21.0375 25.3747 20.6294 25.1791 20.2658C24.9734 19.8833 24.6246 19.4465 24.1692 18.977C23.2553 18.0346 21.8641 16.9114 20.1689 15.7598L19.8462 16.2347C21.5238 17.3744 22.8804 18.4728 23.757 19.3767C24.1969 19.8303 24.5041 20.2229 24.6734 20.5378C24.8529 20.8715 24.8319 21.0288 24.7982 21.0872C24.7792 21.1201 24.7322 21.1681 24.6078 21.2056C24.4819 21.2436 24.301 21.2626 24.0594 21.2521C23.5771 21.2311 22.9164 21.0958 22.1127 20.8487Z" fill="url(#paint4_linear_4044_55205)"/>
<path fill-rule="evenodd" clip-rule="evenodd" d="M16.9126 14.3982C17.9632 15.0047 18.9496 15.6244 19.8464 16.2336L20.1691 15.7587C19.2603 15.1413 18.262 14.5142 17.1997 13.9009C14.6863 12.4498 12.2811 11.3449 10.424 10.728C9.49759 10.4203 8.69328 10.2291 8.07365 10.1822C7.7646 10.1589 7.48488 10.17 7.25273 10.2306C7.02015 10.2912 6.80479 10.4105 6.68052 10.6257C6.54719 10.8567 6.56183 11.1225 6.63947 11.3701C6.71742 11.6187 6.8698 11.8877 7.07305 12.1676C7.48087 12.7293 8.13457 13.3907 8.96969 14.1027L9.34222 13.6657C8.52178 12.9663 7.90698 12.3388 7.53771 11.8303C7.35246 11.5751 7.23919 11.3635 7.18737 11.1983C7.13523 11.032 7.15605 10.9506 7.1778 10.9129C7.19816 10.8776 7.25142 10.8244 7.39768 10.7862C7.54436 10.7479 7.75376 10.7339 8.03037 10.7548C8.58205 10.7965 9.33523 10.9714 10.2429 11.2729C12.0538 11.8745 14.4229 12.9608 16.9126 14.3982Z" fill="url(#paint5_linear_4044_55205)"/>
<path fill-rule="evenodd" clip-rule="evenodd" d="M16.2028 13.7729C18.1316 12.7241 19.9439 11.9068 21.4247 11.3865L21.2344 10.8447C19.7182 11.3775 17.8775 12.2086 15.9285 13.2684L16.2028 13.7729Z" fill="url(#paint6_linear_4044_55205)"/>
<path fill-rule="evenodd" clip-rule="evenodd" d="M8.73753 18.8919C9.95696 17.7558 11.7965 16.3923 13.9931 15.0484L13.6935 14.5586C11.4756 15.9154 9.60218 17.3016 8.34611 18.4717C7.7198 19.0552 7.23537 19.5956 6.9403 20.0605C6.79299 20.2926 6.68417 20.5193 6.63433 20.7331C6.58414 20.9484 6.58909 21.1744 6.70393 21.3733C6.89812 21.7096 7.30828 21.814 7.72011 21.8267C8.15329 21.8401 8.70456 21.757 9.33737 21.5981C10.6074 21.2792 12.2716 20.6383 14.1127 19.749L13.8629 19.2319C12.041 20.112 10.4156 20.7354 9.19758 21.0411C8.58642 21.1946 8.09414 21.2638 7.73782 21.2528C7.3602 21.2412 7.2349 21.1445 7.20123 21.0862C7.18228 21.0534 7.16427 20.9891 7.19358 20.8634C7.22322 20.7362 7.29636 20.5711 7.42511 20.3683C7.68209 19.9633 8.12606 19.4615 8.73753 18.8919Z" fill="url(#paint7_linear_4044_55205)"/>
<path fill-rule="evenodd" clip-rule="evenodd" d="M16.9361 17.6008C15.8796 18.2108 14.844 18.758 13.863 19.2318L14.1128 19.7489C15.1069 19.2687 16.155 18.7149 17.2232 18.098C19.7367 16.6469 21.8961 15.1165 23.359 13.8166C24.0886 13.1682 24.6564 12.5672 25.0067 12.054C25.1815 11.7981 25.3117 11.5502 25.3753 11.3189C25.4391 11.0871 25.4435 10.841 25.3192 10.6258C25.1874 10.3975 24.9537 10.2773 24.704 10.22C24.4535 10.1625 24.1494 10.1585 23.8114 10.1923C23.1332 10.2602 22.25 10.4879 21.2342 10.8448L21.4246 11.3865C22.4221 11.036 23.2561 10.825 23.8685 10.7637C24.1758 10.733 24.4104 10.7418 24.5755 10.7797C24.7415 10.8178 24.8004 10.8756 24.8219 10.9129C24.8423 10.9481 24.8618 11.0209 24.8217 11.1666C24.7815 11.3128 24.6889 11.5011 24.5325 11.7302C24.2206 12.1871 23.6925 12.752 22.9775 13.3873C21.5511 14.6548 19.4258 16.1634 16.9361 17.6008Z" fill="url(#paint8_linear_4044_55205)"/>
<path d="M14.5157 23.7482C14.93 23.7482 15.2658 23.4124 15.2658 22.9981C15.2658 22.5839 14.93 22.248 14.5157 22.248C14.1014 22.248 13.7656 22.5839 13.7656 22.9981C13.7656 23.4124 14.1014 23.7482 14.5157 23.7482Z" fill="white"/>
<path d="M8.53557 13.4109C8.7427 13.0521 9.20145 12.9292 9.56021 13.1363C9.91897 13.3434 10.0419 13.8022 9.83476 14.161C9.62763 14.5197 9.16888 14.6426 8.81012 14.4355C8.45136 14.2284 8.32844 13.7696 8.53557 13.4109Z" fill="white"/>
<path d="M21.9796 10.8409C22.1868 11.1997 22.0639 11.6584 21.7051 11.8655C21.3463 12.0727 20.8876 11.9498 20.6805 11.591C20.4733 11.2322 20.5963 10.7735 20.955 10.5664C21.3138 10.3592 21.7725 10.4822 21.9796 10.8409Z" fill="white"/>
<path fill-rule="evenodd" clip-rule="evenodd" d="M16.0002 14.6943C16.7214 14.6943 17.306 15.279 17.306 16.0002C17.306 16.7214 16.7214 17.306 16.0002 17.306C15.279 17.306 14.6943 16.7214 14.6943 16.0002C14.6943 15.279 15.279 14.6943 16.0002 14.6943Z" fill="white"/>
</g>
<rect x="1" y="1" width="30" height="30" rx="15" stroke="white" stroke-opacity="0.04" stroke-width="2"/>
<defs>
<linearGradient id="paint0_linear_4044_55205" x1="16.2749" y1="26.7477" x2="19.0492" y2="17.4073" gradientUnits="userSpaceOnUse">
<stop offset="0.377307" stop-color="white" stop-opacity="0.6"/>
<stop offset="0.992239" stop-color="white" stop-opacity="0"/>
</linearGradient>
<linearGradient id="paint1_linear_4044_55205" x1="16.0559" y1="5.25195" x2="19.6343" y2="14.3007" gradientUnits="userSpaceOnUse">
<stop offset="0.634963" stop-color="white" stop-opacity="0.81"/>
<stop offset="1" stop-color="white" stop-opacity="0"/>
</linearGradient>
<linearGradient id="paint2_linear_4044_55205" x1="14.6959" y1="12.4482" x2="14.6959" y2="23.0884" gradientUnits="userSpaceOnUse">
<stop stop-color="white" stop-opacity="0.81"/>
<stop offset="0.646422" stop-color="white"/>
</linearGradient>
<linearGradient id="paint3_linear_4044_55205" x1="9.35785" y1="13.5917" x2="14.0501" y2="16.9017" gradientUnits="userSpaceOnUse">
<stop stop-color="white" stop-opacity="0.6"/>
<stop offset="1" stop-color="white" stop-opacity="0"/>
</linearGradient>
<linearGradient id="paint4_linear_4044_55205" x1="25.8427" y1="21.3369" x2="15.4384" y2="19.6055" gradientUnits="userSpaceOnUse">
<stop offset="0.60731" stop-color="white" stop-opacity="0.81"/>
<stop offset="1" stop-color="white" stop-opacity="0"/>
</linearGradient>
<linearGradient id="paint5_linear_4044_55205" x1="19.8908" y1="15.6599" x2="6.3849" y2="10.652" gradientUnits="userSpaceOnUse">
<stop stop-color="white" stop-opacity="0.81"/>
<stop offset="0.478389" stop-color="white"/>
</linearGradient>
<linearGradient id="paint6_linear_4044_55205" x1="21.5321" y1="11.4267" x2="15.9053" y2="14.0412" gradientUnits="userSpaceOnUse">
<stop stop-color="white" stop-opacity="0.6"/>
<stop offset="1" stop-color="white" stop-opacity="0"/>
</linearGradient>
<linearGradient id="paint7_linear_4044_55205" x1="6.39149" y1="21.4114" x2="13.4352" y2="14.0659" gradientUnits="userSpaceOnUse">
<stop offset="0.54518" stop-color="white" stop-opacity="0.81"/>
<stop offset="1" stop-color="white" stop-opacity="0"/>
</linearGradient>
<linearGradient id="paint8_linear_4044_55205" x1="25.6085" y1="10.3597" x2="14.2355" y2="19.8191" gradientUnits="userSpaceOnUse">
<stop offset="0.518582" stop-color="white"/>
<stop offset="1" stop-color="white" stop-opacity="0.81"/>
</linearGradient>
<clipPath id="clip0_4044_55205">
<rect x="2" y="2" width="28" height="28" rx="14" fill="white"/>
</clipPath>
</defs>
</svg>
