<svg width="69" height="14" viewBox="0 0 69 14" fill="none" xmlns="http://www.w3.org/2000/svg">
<path d="M16.9929 8.60125C16.9929 10.2152 18.2865 11.4349 20.5041 11.4349C22.7217 11.4349 23.8305 10.3261 23.8305 8.84765C23.8305 7.41853 23.042 6.69165 21.3049 6.38365L19.9497 6.13725C19.0257 5.97709 18.7793 5.64445 18.7793 5.15165C18.7793 4.52333 19.2597 4.04285 20.3809 4.04285C21.502 4.04285 22.1057 4.65885 22.1057 5.39805H23.7073C23.7073 3.78413 22.5985 2.56445 20.3809 2.56445C18.3481 2.56445 17.1777 3.72253 17.1777 5.15165C17.1777 6.38365 17.8429 7.24605 19.3337 7.49245L20.8121 7.73885C21.9209 7.93597 22.2289 8.34253 22.2289 8.84765C22.2289 9.47597 21.7361 9.95645 20.5041 9.95645C19.3337 9.95645 18.5945 9.35277 18.5945 8.60125H16.9929Z" fill="#868391"/>
<path d="M25.2378 9.83325C25.2378 10.7696 25.7922 11.3117 26.8394 11.3117H28.1946V9.95645H27.209C26.9257 9.95645 26.7778 9.80861 26.7778 9.52525V6.50685H28.1946V5.02845H26.7778V3.24205H25.2378V5.02845H24.2522V6.50685H25.2378V9.83325Z" fill="#868391"/>
<path d="M33.0502 11.3117H34.3438V7.30765C34.3438 5.96477 33.2966 4.90525 31.695 4.90525C30.0194 4.90525 29.1817 5.90317 29.0462 6.93805H30.5862C30.6478 6.58077 31.005 6.13725 31.695 6.13725C32.3849 6.13725 32.8038 6.61773 32.8038 7.30765V7.43085H31.387C29.6622 7.43085 28.7998 8.29325 28.7998 9.52525C28.7998 10.5601 29.6498 11.4349 31.079 11.4349C31.7073 11.4349 32.1385 11.2501 32.4342 11.0653C32.6066 10.9544 32.7545 10.8312 32.8654 10.6957H32.927L33.0502 11.3117ZM32.8038 8.78605C32.8038 9.66077 32.2617 10.2029 31.3254 10.2029C30.697 10.2029 30.3398 9.89485 30.3398 9.40205C30.3398 8.90925 30.7094 8.60125 31.5102 8.60125H32.8038V8.78605Z" fill="#868391"/>
<path d="M35.7458 11.3117H37.2858V8.35485L39.7498 11.3117H41.5362L38.8258 8.10845L41.413 5.02845H39.6266L37.2858 7.86205V2.68765H35.7458V11.3117Z" fill="#868391"/>
<path d="M42.9513 7.61565C43.1361 6.81485 43.6782 6.19885 44.6145 6.19885C45.4892 6.19885 46.019 6.81485 46.1545 7.61565H42.9513ZM45.9081 9.46365C45.7849 9.72237 45.3414 10.1413 44.6145 10.1413C43.7398 10.1413 43.0868 9.53757 42.9513 8.66285H47.6329L47.6575 8.49037C47.6699 8.37949 47.6945 8.23165 47.6945 8.04685C47.6945 6.26045 46.3393 4.90525 44.6145 4.90525C42.7665 4.90525 41.4113 6.26045 41.4113 8.17005C41.4113 10.0797 42.7665 11.4349 44.6145 11.4349C46.598 11.4349 47.3742 9.95645 47.5097 9.46365H45.9081Z" fill="#868391"/>
<path d="M48.9123 11.3117H54.5794V9.77165H50.5139V2.68765H48.9123V11.3117Z" fill="#868391"/>
<path d="M59.1275 11.3117H60.4211V7.30765C60.4211 5.96477 59.3739 4.90525 57.7723 4.90525C56.0967 4.90525 55.259 5.90317 55.1235 6.93805H56.6635C56.7251 6.58077 57.0823 6.13725 57.7723 6.13725C58.4622 6.13725 58.8811 6.61773 58.8811 7.30765V7.43085H57.4643C55.7395 7.43085 54.8771 8.29325 54.8771 9.52525C54.8771 10.5601 55.7271 11.4349 57.1563 11.4349C57.7846 11.4349 58.2158 11.2501 58.5115 11.0653C58.6839 10.9544 58.8318 10.8312 58.9427 10.6957H59.0043L59.1275 11.3117ZM58.8811 8.78605C58.8811 9.66077 58.339 10.2029 57.4027 10.2029C56.7743 10.2029 56.4171 9.89485 56.4171 9.40205C56.4171 8.90925 56.7867 8.60125 57.5875 8.60125H58.8811V8.78605Z" fill="#868391"/>
<path d="M64.9647 10.0181C64.0284 10.0181 63.3631 9.35277 63.3631 8.17005C63.3631 6.98733 64.0284 6.32205 64.9647 6.32205C65.9011 6.32205 66.5663 6.98733 66.5663 8.17005C66.5663 9.35277 65.9011 10.0181 64.9647 10.0181ZM61.8231 11.3117H63.1783L63.3015 10.6341H63.3631C63.4863 10.7942 63.6342 10.9297 63.8066 11.0406C64.1023 11.2377 64.5582 11.4349 65.2111 11.4349C66.8127 11.4349 68.1063 10.1413 68.1063 8.17005C68.1063 6.19885 66.8127 4.90525 65.2111 4.90525C64.5828 4.90525 64.1516 5.11469 63.8559 5.31181C63.6834 5.42269 63.5356 5.55821 63.4247 5.70605H63.3631V2.68765H61.8231V11.3117Z" fill="#868391"/>
<g clip-path="url(#clip0_4040_53357)">
<path fill-rule="evenodd" clip-rule="evenodd" d="M6.99982 14C10.8658 14 13.9998 10.866 13.9998 7C13.9998 3.13401 10.8658 0 6.99982 0C3.13382 0 -0.000183105 3.13401 -0.000183105 7C-0.000183105 10.866 3.13382 14 6.99982 14ZM6.92654 3.01196L7.01177 3.01214L7.09703 3.01196V3.01269C7.40497 3.01531 7.73022 3.02496 8.04686 3.04174C8.30543 3.05544 8.53777 3.18393 8.68694 3.37601C8.83508 3.56663 8.90137 3.81994 8.83029 4.08582L8.82997 4.08583C8.82592 4.10095 8.82143 4.11611 8.81649 4.1313C8.72834 4.40209 8.62357 4.64439 8.50813 4.87982C8.63498 4.98827 8.76014 5.10195 8.88307 5.22067C9.27573 5.59985 9.61788 6.00352 9.90249 6.41462C9.94248 6.31513 9.97779 6.21693 10.0083 6.1204C10.2594 5.32672 10.1666 4.7379 9.85375 4.41398C9.76236 4.31934 9.64771 4.24268 9.5112 4.18713C9.2739 4.07326 9.26785 3.83757 9.33213 3.70096C9.3964 3.56435 9.59538 3.44289 9.79499 3.52559C10.009 3.61423 10.2035 3.74217 10.3704 3.91503C10.9532 4.51852 10.9771 5.43948 10.6931 6.33707C10.608 6.60616 10.4932 6.88157 10.3507 7.15824C10.4932 7.4349 10.608 7.71031 10.6931 7.9794C10.9771 8.87699 10.9532 9.79795 10.3704 10.4014C9.78765 11.0049 8.86808 11.061 7.96112 10.8085C7.65175 10.7224 7.33284 10.5981 7.012 10.4385C6.69114 10.5981 6.37223 10.7224 6.06285 10.8085C5.15589 11.061 4.23633 11.0049 3.65354 10.4015C3.07076 9.79796 3.04683 8.877 3.33083 7.9794C3.41596 7.71032 3.5308 7.4349 3.67324 7.15824C3.5308 6.88157 3.41596 6.60615 3.33083 6.33707C3.04683 5.43947 3.07076 4.51851 3.65354 3.91502C3.8224 3.74016 4.01954 3.61126 4.23645 3.5225C4.40081 3.45526 4.5773 3.52396 4.67426 3.66941C4.77123 3.81485 4.74887 4.08948 4.50673 4.1896C4.37287 4.24494 4.26027 4.32074 4.17023 4.41397C3.85742 4.73789 3.76453 5.32671 4.01564 6.12039C4.04619 6.21693 4.0815 6.31513 4.12149 6.41462C4.4061 6.00352 4.74825 5.59986 5.1409 5.22067C5.26374 5.10205 5.38881 4.98845 5.51556 4.88007C5.40007 4.64456 5.29527 4.40218 5.20709 4.1313C5.02758 3.57986 5.44689 3.06981 5.97671 3.04174C6.29335 3.02496 6.61861 3.01531 6.92654 3.01269V3.01196ZM8.13349 3.90897C8.07432 4.09073 8.00585 4.25942 7.92791 4.42792L7.92037 4.4226C7.85272 4.56923 7.77789 4.71561 7.69579 4.87022C7.67531 4.90959 7.63648 4.97922 7.58659 5.06689C7.85655 5.26279 8.12453 5.48668 8.38412 5.73735C8.85586 6.19291 9.24015 6.67929 9.5285 7.15824C9.24015 7.63718 8.85586 8.12356 8.38412 8.57912C7.94059 9.00742 7.47255 9.35751 7.01199 9.62346C6.55143 9.35751 6.08338 9.00742 5.63986 8.57911C5.16811 8.12355 4.78383 7.63718 4.49548 7.15824C4.78383 6.67929 5.16811 6.19292 5.63986 5.73736C5.89713 5.48891 6.16266 5.26678 6.43019 5.07213C6.37886 4.98199 6.33889 4.91037 6.318 4.87022C6.23691 4.71752 6.16292 4.57284 6.09593 4.42803L6.09577 4.42814C6.06733 4.36667 6.04016 4.30517 6.01423 4.24303L6.01443 4.24309C5.96928 4.13486 5.92794 4.02465 5.89034 3.90917C5.8893 3.90597 5.88841 3.9028 5.88765 3.89967C5.88005 3.86823 5.88687 3.84016 5.90524 3.81513C5.92632 3.78638 5.963 3.76272 6.0116 3.7592L6.01472 3.75901L6.01499 3.75899H6.01901C6.24529 3.74705 6.47628 3.73878 6.70149 3.73428L6.70104 3.73408C6.80623 3.73197 6.91016 3.73069 7.01177 3.73023C7.11351 3.73069 7.21759 3.73198 7.32294 3.73409L7.32248 3.73428C7.54907 3.73882 7.78152 3.74716 8.00912 3.75921C8.04467 3.7611 8.07403 3.7737 8.0958 3.79133C8.10468 3.79856 8.1123 3.80663 8.11854 3.81514C8.1387 3.84261 8.14495 3.87375 8.13349 3.90897ZM8.88307 9.0958C9.27573 8.71662 9.61788 8.31295 9.90249 7.90185C9.94248 8.00134 9.97779 8.09954 10.0083 8.19607C10.2594 8.98975 10.1666 9.57857 9.85375 9.90249C9.54094 10.2264 8.95573 10.3398 8.15376 10.1165C8.03109 10.0824 7.90551 10.0408 7.77779 9.99187C8.15624 9.7381 8.52889 9.43783 8.88307 9.0958ZM5.1409 9.0958C5.49509 9.43783 5.86775 9.7381 6.2462 9.99188C6.11848 10.0408 5.99289 10.0824 5.87021 10.1165C5.06825 10.3398 4.48303 10.2264 4.17023 9.9025C3.85742 9.57858 3.76453 8.98976 4.01564 8.19608C4.04619 8.09954 4.0815 8.00134 4.12149 7.90185C4.4061 8.31295 4.74825 8.71661 5.1409 9.0958ZM7.00669 4.69608L7.00711 4.69583V4.17939L7.00669 4.17938V4.69608ZM7.01181 8.21945C7.45809 8.21945 7.81987 7.85767 7.81987 7.41139C7.81987 6.96511 7.45809 6.60333 7.01181 6.60333C6.56553 6.60333 6.20375 6.96511 6.20375 7.41139C6.20375 7.85767 6.56553 8.21945 7.01181 8.21945Z" fill="#868391"/>
</g>
<defs>
<clipPath id="clip0_4040_53357">
<rect x="-0.000183105" width="14" height="14" rx="7" fill="white"/>
</clipPath>
</defs>
</svg>
