<svg width="16" height="16" viewBox="0 0 16 16" fill="none" xmlns="http://www.w3.org/2000/svg">
<path fill-rule="evenodd" clip-rule="evenodd" d="M14.9448 14.9447C13.4697 16.4198 10.7743 16.2985 8.00001 14.8923C5.22576 16.2985 2.5303 16.4198 1.05524 14.9448C-0.419816 13.4697 -0.298549 10.7743 1.1077 8C-0.298549 5.22575 -0.419815 2.5303 1.05524 1.05524C2.5303 -0.419816 5.22576 -0.298549 8.00001 1.1077C10.7743 -0.29854 13.4697 -0.419803 14.9448 1.05525C16.4198 2.53031 16.2985 5.22575 14.8923 8C16.2985 10.7742 16.4198 13.4697 14.9448 14.9447ZM10.8 7.99994C10.8 9.54634 9.5464 10.7999 8 10.7999C6.4536 10.7999 5.2 9.54634 5.2 7.99994C5.2 6.45355 6.4536 5.19995 8 5.19995C9.5464 5.19995 10.8 6.45355 10.8 7.99994Z" fill="#A29FAB"/>
<path fill-rule="evenodd" clip-rule="evenodd" d="M14.9448 14.9447C13.4697 16.4198 10.7743 16.2985 8.00001 14.8923C5.22576 16.2985 2.5303 16.4198 1.05524 14.9448C-0.419816 13.4697 -0.298549 10.7743 1.1077 8C-0.298549 5.22575 -0.419815 2.5303 1.05524 1.05524C2.5303 -0.419816 5.22576 -0.298549 8.00001 1.1077C10.7743 -0.29854 13.4697 -0.419803 14.9448 1.05525C16.4198 2.53031 16.2985 5.22575 14.8923 8C16.2985 10.7742 16.4198 13.4697 14.9448 14.9447ZM10.8 7.99994C10.8 9.54634 9.5464 10.7999 8 10.7999C6.4536 10.7999 5.2 9.54634 5.2 7.99994C5.2 6.45355 6.4536 5.19995 8 5.19995C9.5464 5.19995 10.8 6.45355 10.8 7.99994Z" fill="url(#paint0_radial_4491_30926)" fill-opacity="0.8"/>
<defs>
<radialGradient id="paint0_radial_4491_30926" cx="0" cy="0" r="1" gradientUnits="userSpaceOnUse" gradientTransform="translate(6.37569 10.6) rotate(33.69) scale(18.0277 18.0277)">
<stop stop-color="#7950F2"/>
<stop offset="1" stop-color="white"/>
</radialGradient>
</defs>
</svg>
